<svg xmlns="http://www.w3.org/2000/svg" xmlns:xlink="http://www.w3.org/1999/xlink" viewBox="0 0 580.03 580.01"><defs><clipPath id="clip-path"><rect width="580" height="580.01" fill="none"/></clipPath></defs><g id="Layer_2" data-name="Layer 2"><g id="svg2"><g clip-path="url(#clip-path)"><path d="M41.22,290c0,98.48,57.23,183.57,140.22,223.91L62.76,188.75A247.9,247.9,0,0,0,41.22,290Z" fill="#00749a"/><path d="M458,277.44c0-30.74-11-52-20.53-68.61C424.83,188.34,413,171,413,150.49c0-22.87,17.34-44.16,41.77-44.16,1.1,0,2.15.14,3.23.2A248.73,248.73,0,0,0,82.14,153.36c5.84.18,11.35.29,16,.29,26,0,66.31-3.15,66.31-3.15,13.41-.8,15,18.9,1.6,20.49,0,0-13.49,1.58-28.48,2.37l90.6,269.47,54.44-163.28-38.77-106.2c-13.39-.78-26.08-2.37-26.08-2.37-13.41-.78-11.84-21.28,1.57-20.49,0,0,41.08,3.16,65.53,3.16,26,0,66.3-3.16,66.3-3.16,13.42-.79,15,18.91,1.59,20.49,0,0-13.5,1.59-28.47,2.37L414.2,440.79,439,357.87C449.77,323.46,458,298.74,458,277.44Z" fill="#00749a"/><path d="M294.37,311.76,219.73,528.65a248.66,248.66,0,0,0,152.89-4,20.07,20.07,0,0,1-1.77-3.42Z" fill="#00749a"/><path d="M508.3,170.64A190.76,190.76,0,0,1,510,196.22c0,25.24-4.72,53.62-18.92,89.11L415.07,505c74-43.13,123.71-123.26,123.71-215A247.49,247.49,0,0,0,508.3,170.64Z" fill="#00749a"/><path d="M290,0C130.1,0,0,130.09,0,290S130.09,580,290,580,580,449.92,580,290,449.91,0,290,0Zm0,566.71C137.44,566.71,13.3,442.58,13.3,290S137.43,13.3,290,13.3,566.7,137.43,566.7,290,442.57,566.71,290,566.71Z" fill="#00749a"/></g></g></g></svg>